<svg xmlns="http://www.w3.org/2000/svg" viewBox="0 0 1119 367" fill="none"><defs><linearGradient id="axbGold" x1="0%" y1="0%" x2="100%" y2="100%"><stop offset="0%" stop-color="#D4AF37"/><stop offset="35%" stop-color="#FFF2A8"/><stop offset="65%" stop-color="#D4AF37"/><stop offset="100%" stop-color="#996B11"/></linearGradient></defs><path d="M0 0 C1.8 -0.0 3.5 -0.0 5.3 -0.0 C10.1 -0.0 14.9 0.0 19.7 0.0 C24.7 0.1 29.7 0.1 34.8 0.1 C43.2 0.1 51.7 0.1 60.1 0.2 C69.9 0.3 79.6 0.3 89.3 0.3 C99.7 0.3 110.1 0.3 120.5 0.4 C123.5 0.4 126.5 0.4 129.5 0.4 C134.2 0.4 138.9 0.4 143.6 0.5 C145.3 0.5 147.0 0.5 148.8 0.5 C178.5 0.5 204.9 8.7 227.0 29.7 C246.5 50.1 255.6 76.2 255.1 104.1 C254.2 125.8 245.3 145.3 231.5 161.8 C229.9 163.8 228.3 165.9 226.8 168.0 C227.4 168.6 228.0 169.2 228.7 169.8 C246.4 186.9 257.7 210.3 258.1 235.2 C258.1 262.8 249.4 287.1 229.9 307.0 C207.1 329.4 179.2 334.5 148.5 334.3 C146.3 334.3 144.0 334.3 141.7 334.3 C135.5 334.3 129.4 334.3 123.2 334.3 C116.7 334.2 110.3 334.2 103.8 334.2 C93.0 334.2 82.2 334.2 71.4 334.2 C60.2 334.2 49.1 334.1 38.0 334.1 C37.3 334.1 36.6 334.1 35.8 334.1 C29.8 334.1 23.7 334.1 17.7 334.1 C-8.3 334.1 -34.3 334.0 -60.2 334.0 C-59.9 270.6 -59.6 207.2 -59.2 142.0 C-51.4 141.9 -51.4 141.9 -11.5 141.8 C-1.6 141.8 8.4 141.7 18.4 141.7 C34.2 141.6 50.0 141.6 65.9 141.5 C77.4 141.5 88.9 141.5 100.5 141.4 C106.6 141.4 112.7 141.4 118.8 141.4 C124.5 141.3 130.3 141.3 136.0 141.3 C138.1 141.3 140.2 141.3 142.3 141.3 C161.0 141.2 176.3 140.9 190.6 127.3 C197.9 119.3 201.4 108.4 201.1 97.6 C199.8 86.6 196.1 77.3 188.8 69.0 C181.0 63.0 171.8 57.9 161.7 57.8 C161.0 57.8 160.2 57.8 159.3 57.8 C158.5 57.8 157.6 57.8 156.7 57.8 C155.8 57.8 154.9 57.8 153.9 57.8 C150.8 57.8 147.7 57.8 144.6 57.8 C142.3 57.7 140.1 57.7 137.9 57.7 C131.8 57.7 125.8 57.7 119.7 57.7 C113.4 57.6 107.1 57.6 100.8 57.6 C90.1 57.5 79.5 57.5 68.9 57.5 C58.0 57.4 47.0 57.4 36.1 57.3 C35.4 57.3 34.8 57.3 34.1 57.3 C30.7 57.3 27.3 57.3 23.9 57.3 C-4.1 57.2 -32.2 57.1 -60.2 57.0 C-58.1 50.4 -58.1 50.4 -55.6 47.4 C-55.1 46.8 -54.6 46.2 -54.1 45.6 C-53.5 44.9 -53.0 44.3 -52.4 43.6 C-51.2 42.2 -50.1 40.7 -48.9 39.3 C-48.3 38.6 -47.7 37.9 -47.1 37.1 C-44.1 33.7 -41.3 30.1 -38.4 26.6 C-37.9 25.9 -37.3 25.2 -36.8 24.6 C-33.2 20.2 -29.7 15.8 -26.2 11.4 C-25.6 10.6 -24.9 9.8 -24.2 9.0 C-23.9 8.3 -23.5 7.7 -23.1 7.0 C-17.5 -1.4 -9.1 -0.1 0 0 Z M-8.2 198.0 C-8.3 200.6 -8.4 203.3 -8.4 205.9 C-8.4 206.8 -8.4 207.6 -8.4 208.5 C-8.4 211.3 -8.4 214.0 -8.4 216.8 C-8.4 218.8 -8.4 220.7 -8.4 222.6 C-8.4 226.6 -8.4 230.7 -8.4 234.7 C-8.4 239.9 -8.4 245.1 -8.4 250.3 C-8.4 254.3 -8.4 258.2 -8.4 262.2 C-8.4 264.1 -8.4 266.0 -8.4 268.0 C-8.4 270.6 -8.4 273.3 -8.4 276.0 C-8.4 276.8 -8.4 277.6 -8.4 278.4 C-8.3 283.8 -8.3 283.8 -7.2 285.0 C-5.1 285.1 -2.9 285.1 -0.7 285.1 C-0.4 285.1 -0.4 285.1 1.4 285.1 C3.7 285.1 6.1 285.1 8.4 285.1 C10.1 285.1 11.7 285.1 13.4 285.1 C17.9 285.1 22.5 285.1 27.0 285.1 C30.8 285.1 34.6 285.1 38.4 285.1 C47.3 285.1 56.3 285.1 65.2 285.1 C74.5 285.1 83.7 285.2 92.9 285.2 C100.8 285.2 108.8 285.2 116.7 285.2 C121.4 285.2 126.1 285.2 130.9 285.2 C135.3 285.2 139.8 285.2 144.2 285.2 C145.9 285.2 147.5 285.2 149.1 285.2 C165.7 285.3 181.3 284.0 194.2 272.4 C200.8 265.2 205.8 254.7 206.8 245.0 C206.8 244.6 206.8 244.6 207.0 242.6 C207.7 230.2 202.3 218.4 194.2 209.2 C181.9 197.6 166.6 196.7 150.7 196.7 C149.0 196.7 147.3 196.7 145.5 196.7 C140.9 196.7 136.2 196.7 131.6 196.7 C126.7 196.7 121.8 196.7 116.9 196.7 C108.7 196.7 100.6 196.7 92.4 196.8 C82.9 196.8 73.4 196.8 64.0 196.8 C54.9 196.8 45.8 196.8 36.6 196.8 C32.8 196.8 28.9 196.8 25.0 196.8 C20.5 196.8 15.9 196.8 11.3 196.8 C9.7 196.8 8.0 196.8 6.3 196.8 C4.0 196.8 1.7 196.8 -0.5 196.8 C-1.2 196.8 -1.2 196.8 -4.4 196.8 C-7.2 197.0 -7.2 197.0 -8.2 198.0 Z " fill="#FFFFFF" transform="translate(848.2,20.0)"/><path d="M0 0 C4.0 3.5 6.4 7.7 9.1 12.3 C12.6 18.0 16.1 23.7 19.8 29.2 C23.9 35.3 27.9 41.5 31.8 47.7 C36.3 54.8 40.8 61.8 45.4 68.8 C50.3 76.4 55.2 84.0 60.1 91.7 C66.0 100.8 71.8 109.9 77.7 119.0 C79.0 121.0 80.3 122.9 81.5 124.9 C89.6 137.4 97.7 149.8 105.9 162.3 C119.7 183.4 133.6 204.6 147.2 225.9 C151.1 232.0 155.0 238.0 158.9 244.1 C163.1 250.6 167.3 257.2 171.4 263.8 C174.4 268.7 177.5 273.6 180.6 278.5 C181.2 279.3 181.7 280.2 182.2 281.1 C183.5 283.0 184.7 285.0 186 287 C181.9 292.7 177.4 297.9 172.6 303 C168.2 307.6 163.9 312.3 159.7 317.1 C157.0 320.1 154.3 323.0 151.6 326 C151.0 326.6 150.5 327.2 149.9 327.8 C148.6 329.2 147.3 330.6 146 332 C143.1 329.2 140.9 326.5 138.8 323.0 C138.1 322.1 137.5 321.1 136.9 320.1 C136.6 319.6 136.6 319.6 135 316.9 C133.6 314.8 132.3 312.6 130.9 310.4 C130.3 309.3 129.6 308.2 128.9 307.1 C126.3 302.8 123.6 298.6 120.9 294.4 C120.5 293.6 120.0 292.9 119.5 292.1 C113.3 282.4 107.2 272.7 101 263 C100.4 262.0 99.7 261.0 99.1 260.0 C90.0 245.8 80.9 231.7 71.8 217.7 C69.0 213.4 66.2 209.1 63.4 204.8 C63.1 204.4 63.1 204.4 61.8 202.3 C59.7 199.1 57.5 195.8 55.4 192.6 C53.8 190.1 52.2 187.6 50.6 185.2 C50.1 184.4 49.6 183.6 49.0 182.7 C44.8 176.2 40.6 169.8 36.4 163.3 C31.6 156.1 26.9 148.8 22.2 141.5 C19.5 137.3 16.8 133.2 14.1 129.0 C13.7 128.5 13.7 128.5 12.0 125.9 C10.6 123.8 9.3 121.8 7.9 119.8 C7.3 118.8 6.7 117.9 6.1 116.9 C5.5 116.1 5.0 115.3 4.4 114.4 C3.0 112.0 2.0 109.6 1 107 C-3.1 110.6 -5.8 115.0 -8.7 119.5 C-9.3 120.4 -9.8 121.2 -10.4 122.1 C-11.6 123.9 -12.8 125.8 -14.0 127.6 C-17.3 132.6 -20.6 137.6 -23.8 142.6 C-24.5 143.6 -25.2 144.7 -25.9 145.7 C-32.8 156.3 -39.9 166.8 -47 177.2 C-58.5 194.2 -69.8 211.2 -80.9 228.3 C-82.6 230.9 -84.3 233.5 -86.0 236.2 C-88.5 239.9 -90.9 243.6 -93.3 247.4 C-95.9 251.4 -98.5 255.3 -101.1 259.3 C-108.2 270.1 -115.2 280.8 -122.1 291.7 C-127.4 300.0 -132.7 308.2 -138.1 316.4 C-138.7 317.4 -139.3 318.3 -139.9 319.2 C-150.5 335.5 -150.5 335.5 -153 338 C-155.1 338.1 -157.2 338.1 -159.3 338.1 C-159.6 338.1 -159.6 338.1 -161.2 338.1 C-163.4 338.1 -165.6 338.1 -167.8 338.1 C-169.3 338.1 -170.8 338.1 -172.3 338.1 C-176.2 338.1 -180.2 338.1 -184.1 338.1 C-188.2 338.1 -192.2 338.1 -196.2 338.0 C-204.2 338.0 -212.1 338.0 -220 338 C-218.7 334.7 -217.4 331.8 -215.5 328.9 C-215.3 328.5 -215.3 328.5 -214.1 326.6 C-213.8 326.2 -213.8 326.2 -212.5 324.1 C-212.0 323.3 -211.4 322.4 -210.9 321.6 C-207.2 315.9 -203.6 310.3 -199.8 304.7 C-196.8 300.2 -193.8 295.6 -190.9 291.1 C-185.3 282.5 -179.8 274.0 -174.2 265.5 C-173.7 264.8 -173.2 264.0 -172.7 263.3 C-167.2 254.8 -161.6 246.4 -156.0 238.0 C-155.5 237.2 -155.0 236.5 -154.5 235.7 C-152.2 232.3 -149.9 228.8 -147.5 225.4 C-142.8 218.2 -138.1 211.0 -133.6 203.8 C-129.9 197.7 -126.0 191.9 -122 186 C-120.6 183.9 -119.1 181.7 -117.7 179.6 C-117.0 178.5 -116.3 177.4 -115.5 176.3 C-108.9 166.4 -102.4 156.5 -96.0 146.4 C-92.8 141.2 -89.4 136.1 -86.0 130.9 C-82.4 125.6 -78.9 120.3 -75.4 114.9 C-68.5 104.4 -61.6 93.8 -54.7 83.2 C-54.4 82.8 -54.4 82.8 -53.1 80.8 C-45.3 69.0 -37.6 57.3 -29.7 45.6 C-26.0 40.1 -22.4 34.5 -18.8 28.8 C-15.6 23.8 -12.4 18.9 -9.2 14 C-8.9 13.5 -8.9 13.5 -7.2 10.9 C-2.3 3.5 -2.3 3.5 0 0 Z " fill="#FFFFFF" transform="translate(234,14)"/><path d="M0 0 C10.0 -0.2 20.0 -0.4 30.0 -0.5 C34.7 -0.6 39.3 -0.6 44.0 -0.8 C48.5 -0.9 53.0 -0.9 57.5 -0.9 C59.2 -1.0 60.9 -1.0 62.6 -1.1 C76.0 -1.5 76.0 -1.5 81.0 2.1 C83.2 4.6 85.1 7.2 87 10 C88.4 11.6 89.7 13.1 91.1 14.6 C91.9 15.4 92.6 16.3 93.3 17.1 C97.4 21.5 101.4 25.8 105.5 30.1 C109.2 34.0 112.8 38.0 116.4 42.1 C118.7 44.8 121.1 47.4 123.5 50 C127.1 53.9 130.7 57.9 134.2 61.9 C136.4 64.5 138.7 67.0 141 69.5 C144.5 73.3 147.9 77.1 151.2 81.0 C155.6 85.9 160.0 90.8 164.5 95.7 C168.5 100.1 172.5 104.6 176.2 109.2 C181.1 115.3 186.5 120.9 191.8 126.6 C194.7 129.6 197.4 132.7 200.2 135.9 C202.7 138.8 205.4 141.7 208 144.5 C215.3 152.4 222.3 160.5 229 169 C225.0 174.8 220.4 179.7 215.4 184.6 C212.8 187.2 210.5 189.8 208.1 192.6 C204.6 196.6 200.9 200.5 197.2 204.4 C194.3 207.5 191.4 210.7 188.5 214.0 C184.4 218.8 180.0 223.4 175.6 228 C171.9 232.0 168.2 236.0 164.6 240.1 C162.3 242.8 160.0 245.3 157.6 247.9 C154.2 251.6 150.8 255.3 147.5 259 C141.4 265.8 135.3 272.5 129.1 279.1 C121.2 287.8 121.2 287.8 117.6 291.9 C114.0 296.0 110.3 300.0 106.6 304.0 C85.7 326.5 85.7 326.5 84.1 329.7 C82.6 332.1 81.4 333.4 79 335 C73.3 336.0 67.6 335.8 61.8 335.7 C60.1 335.7 58.4 335.7 56.7 335.7 C52.3 335.6 47.8 335.6 43.4 335.5 C38.8 335.4 34.3 335.4 29.7 335.3 C20.8 335.3 11.9 335.1 3 335 C4.6 331.6 6.4 329.4 9.2 326.8 C12.7 323.4 15.9 319.9 19.1 316.2 C21.5 313.5 23.9 310.8 26.4 308.1 C29.8 304.4 33.2 300.7 36.5 297 C42.1 290.8 47.8 284.6 53.4 278.5 C68.5 262.0 68.5 262.0 75.4 254.1 C80.6 248.1 86.1 242.3 91.5 236.4 C100.7 226.4 100.7 226.4 104.4 222.1 C107.5 218.5 110.8 215.0 114 211.5 C117.8 207.4 121.6 203.3 125.2 199.0 C127.5 196.5 129.7 194.0 132 191.5 C136.1 187.0 140.1 182.5 144 178 C145.3 176.5 146.6 175.0 147.9 173.5 C148.2 173.2 148.2 173.2 149.7 171.5 C150.1 171.0 150.6 170.5 151 170 C147.6 165.2 144.0 160.9 139.8 156.8 C137.3 154.3 135.1 151.8 132.9 149.2 C130.8 146.8 128.6 144.4 126.5 142 C123.9 139.1 121.3 136.2 118.7 133.2 C115.1 129.0 111.3 125.0 107.6 120.9 C101.9 114.8 96.3 108.6 90.8 102.3 C86.8 97.6 82.5 93.2 78.3 88.6 C72.7 82.7 67.3 76.7 61.9 70.7 C57.3 65.5 52.6 60.4 47.9 55.4 C43.7 50.9 39.6 46.5 35.6 41.9 C30.3 35.8 24.8 29.8 19.4 23.9 C15.7 19.9 12.1 15.9 8.6 11.9 C7.4 10.5 6.2 9.2 5.0 7.8 C4.4 7.1 3.7 6.4 3.1 5.6 C2.8 5.3 2.8 5.3 1.3 3.7 C0 2 0 2 0 0 Z " fill="url(#axbGold)" transform="translate(406,19)"/><path d="M0 0 C4.1 4.0 8.0 8.1 11.9 12.3 C12.2 12.6 12.2 12.6 13.8 14.3 C17.4 18.2 20.9 22.1 24.4 26.1 C26.4 28.4 28.4 30.7 30.5 33 C35.3 38.3 40.1 43.7 44.7 49.2 C50.5 56.0 56.5 62.7 62.6 69.3 C66.7 73.9 70.8 78.6 74.8 83.2 C75.8 84.5 76.8 85.7 77.9 86.9 C78.4 87.5 78.9 88.1 79.5 88.7 C82.5 92.3 85.6 95.7 88.7 99.2 C91.7 102.5 94.6 105.9 97.4 109.4 C101.1 113.9 104.9 118.2 108.9 122.5 C112.7 126.6 116.2 130.9 119.7 135.3 C123.0 139.2 126.5 142.9 130.0 146.7 C132 149 132 149 133 152 C123.0 152.3 113.0 152.5 103.0 152.6 C98.3 152.6 93.7 152.7 89.0 152.8 C84.5 152.9 80.0 153.0 75.5 153.0 C73.8 153.1 72.1 153.1 70.4 153.2 C57.0 153.6 57.0 153.6 52.0 149.6 C49.7 146.8 47.9 144.1 46 141 C44.9 139.8 43.9 138.5 42.7 137.4 C42.3 136.9 41.8 136.3 41.3 135.8 C41.1 135.6 41.1 135.6 39.9 134.3 C38.8 133.2 37.8 132.1 36.8 131.0 C36.3 130.5 35.8 129.9 35.3 129.4 C31.5 125.3 27.9 121.0 24.3 116.8 C18.7 110.2 13.0 103.8 7.2 97.4 C3.2 93.0 -0.8 88.4 -4.7 83.9 C-10.3 77.3 -16.0 70.8 -21.8 64.5 C-25.6 60.4 -29.4 56.2 -33 52 C-33.3 51.7 -33.3 51.7 -34.8 50.0 C-36.2 48.3 -37.6 46.7 -39 45 C-37.7 42.2 -36.3 40.1 -34.2 37.8 C-33.7 37.3 -33.1 36.7 -32.6 36.1 C-32.0 35.5 -31.4 34.9 -30.8 34.2 C-29.6 33.0 -28.4 31.7 -27.3 30.5 C-26.7 29.9 -26.1 29.3 -25.5 28.6 C-23.2 26.1 -20.9 23.5 -18.7 20.9 C-16.6 18.6 -14.6 16.3 -12.5 14 C-9.1 10.2 -5.7 6.4 -2.3 2.5 C-1.6 1.6 -0.8 0.8 0 0 Z " fill="#FFFFFF" transform="translate(655,202)"/><path d="M0 0 C1.7 0.0 3.4 0.0 5.1 0.0 C9.5 0.1 13.9 0.2 18.4 0.3 C22.9 0.4 27.4 0.4 32.0 0.4 C40.8 0.5 49.7 0.7 58.6 0.9 C56.8 4.7 54.3 7.6 51.4 10.6 C50.4 11.7 49.4 12.8 48.4 13.9 C47.9 14.4 47.4 14.9 46.9 15.4 C44.7 17.9 42.5 20.4 40.3 22.9 C38.3 25.2 36.2 27.6 34.1 29.9 C30.8 33.5 27.6 37.2 24.4 40.8 C22.4 43.1 20.4 45.3 18.4 47.5 C14.8 51.5 11.3 55.5 7.8 59.6 C3.1 65.2 -1.9 70.7 -6.9 76.0 C-10.2 79.6 -13.5 83.3 -16.7 87.0 C-21.0 91.9 -25.4 96.6 -29.7 101.5 C-33.1 105.2 -36.5 108.9 -39.8 112.8 C-43.2 116.7 -46.8 120.6 -50.4 124.5 C-53.5 127.9 -56.6 131.3 -59.6 134.8 C-62.7 138.4 -66.0 141.9 -69.2 145.4 C-71.0 147.5 -72.8 149.6 -74.4 151.9 C-77.7 151.3 -79.1 150.5 -81.2 148.0 C-81.4 147.7 -81.4 147.7 -82.7 146.2 C-83.2 145.5 -83.7 144.9 -84.2 144.3 C-85.3 143.0 -86.4 141.7 -87.4 140.4 C-88.0 139.8 -88.5 139.2 -89.0 138.5 C-90.6 136.6 -92.3 134.9 -94.1 133.2 C-97.8 129.6 -101.0 125.6 -104.2 121.5 C-106.7 118.6 -109.4 116.0 -112.3 113.4 C-113.4 111.9 -113.4 111.9 -113.4 110.1 C-111.9 106.8 -109.4 104.4 -106.9 101.8 C-103.1 97.8 -99.5 93.9 -96.1 89.6 C-91.6 84.0 -86.8 78.9 -81.9 73.7 C-76.1 67.6 -70.6 61.3 -65.2 54.9 C-59.4 48.1 -53.4 41.5 -47.3 35.0 C-43.9 31.4 -40.6 27.6 -37.4 23.9 C-36.0 22.2 -34.5 20.5 -33.0 18.8 C-32.0 17.6 -31.0 16.4 -30.0 15.2 C-29.1 14.1 -28.1 13.0 -27.1 11.9 C-25.4 9.9 -25.4 9.9 -24.0 7.6 C-17.8 -1.3 -9.8 -0.3 0 0 Z " fill="#FFFFFF" transform="translate(730.4,19.1)"/></svg>